# xmcd CD database file
#
# Track frame offsets:
#	183
#	12953
#	24283
#	34425
#	45363
#	56545
#	69940
#	84455
#	98065
#	116545
#	129778
#	143938
#	157973
#	169448
#	182523
#	196135
#	207578
#	221813
#	233648
#	247688
#	261543
#	273678
#	287655
#	301965
#	315900
#	334883
#
# Disc length: 4580 seconds
#
# Revision: 0
# Processed by: cddbd v1.5.2PL0 Copyright (c) Steve Scherf et al.
# Submitted via: CDex 1.51
#
DISCID=6b11e21a
DTITLE=Judy Garland - Over the Rainbow
DYEAR=1900
DGENRE=Jazz
TTITLE0=over the rainbow
TTITLE1=F D R Jones
TTITLE2=Swanee
TTITLE3=stompin' at the Savoy
TTITLE4=it's a great day for the Irish
TTITLE5=zing! went the strings of my heart
TTITLE6=sleep, my baby, sleep
TTITLE7=how about you
TTITLE8=in-between
TTITLE9=everybody sing
TTITLE10=blues in the night
TTITLE11=all god's chillun got rhythm
TTITLE12=you can't have everything
TTITLE13=embraceable you
TTITLE14=I'm always chasing rainbows
TTITLE15=cry, baby, cry
TTITLE16=oceans apart
TTITLE17=it never rains but it pours
TTITLE18=buds won't bud
TTITLE19=(can this be) the end of the rainbow
TTITLE20=wearing of the green
TTITLE21=swing Mister Charlie
TTITLE22=you made me love you (dear Mr Gable)
TTITLE23=ten pins in the sky
TTITLE24=sweet 16
TTITLE25=I'm just wild about Harry
EXTD=
EXTT0=
EXTT1=
EXTT2=
EXTT3=
EXTT4=
EXTT5=
EXTT6=
EXTT7=
EXTT8=
EXTT9=
EXTT10=
EXTT11=
EXTT12=
EXTT13=
EXTT14=
EXTT15=
EXTT16=
EXTT17=
EXTT18=
EXTT19=
EXTT20=
EXTT21=
EXTT22=
EXTT23=
EXTT24=
EXTT25=
PLAYORDER=
